<?xml version="1.0" standalone="no"?>
<!DOCTYPE svg PUBLIC "-//W3C//DTD SVG 20010904//EN"
 "http://www.w3.org/TR/2001/REC-SVG-20010904/DTD/svg10.dtd">
<svg version="1.0" xmlns="http://www.w3.org/2000/svg"
 width="700.000000pt" height="700.000000pt" viewBox="0 0 700.000000 700.000000"
 preserveAspectRatio="xMidYMid meet">
<metadata>
Created by potrace 1.11, written by Peter Selinger 2001-2013
</metadata>
<g transform="translate(0.000000,700.000000) scale(0.100000,-0.100000)"
fill="#000000" stroke="none">
<path d="M3278 6996 c-1 -2 -39 -6 -83 -10 -78 -6 -140 -13 -200 -22 -16 -2
-48 -7 -70 -10 -90 -13 -318 -66 -441 -104 -277 -83 -582 -221 -829 -375 -555
-344 -1015 -855 -1304 -1447 -39 -80 -71 -149 -71 -153 0 -4 -7 -21 -15 -38
-63 -137 -155 -432 -189 -607 -8 -41 -17 -84 -19 -95 -5 -20 -22 -131 -31
-195 -15 -103 -21 -229 -21 -440 1 -271 3 -295 50 -620 19 -132 142 -563 189
-665 8 -16 26 -59 41 -95 35 -83 147 -307 180 -360 14 -22 25 -42 25 -45 0
-15 207 -311 283 -405 145 -179 309 -348 466 -480 30 -25 59 -50 65 -55 26
-24 208 -155 286 -207 363 -238 813 -422 1235 -504 22 -4 42 -8 45 -9 3 -1 46
-7 95 -14 50 -7 101 -14 115 -17 162 -25 706 -25 843 2 12 2 39 6 62 9 277 39
594 124 850 230 117 49 352 167 460 233 796 481 1364 1243 1595 2138 16 63 31
124 34 136 2 13 11 61 19 108 9 47 21 123 28 170 6 47 13 99 15 115 8 60 11
562 3 625 -4 36 -10 90 -13 120 -8 73 -12 103 -26 180 -6 36 -13 79 -16 95
-23 128 -125 480 -169 580 -7 17 -30 71 -51 120 -74 179 -199 405 -322 585
-56 82 -194 265 -211 280 -3 3 -35 38 -69 77 -51 58 -222 230 -276 278 -107
95 -236 197 -321 255 -27 18 -52 36 -55 39 -6 7 -9 9 -155 97 -197 120 -498
260 -685 319 -30 10 -65 21 -76 25 -40 15 -249 69 -344 89 -82 17 -149 27
-370 57 -47 6 -545 15 -552 10z m502 -699 c14 -3 48 -8 75 -11 234 -25 546
-110 775 -213 660 -296 1174 -815 1455 -1468 60 -140 135 -372 161 -500 14
-67 32 -175 40 -235 3 -19 7 -48 10 -65 12 -72 12 -485 -1 -590 -16 -133 -49
-323 -71 -402 -21 -78 -34 -125 -38 -143 -34 -134 -203 -500 -311 -669 -313
-493 -768 -875 -1306 -1099 -137 -56 -351 -125 -435 -138 -21 -3 -41 -7 -44
-9 -11 -7 -240 -44 -315 -52 -159 -16 -558 -8 -670 13 -16 3 -64 12 -105 19
-41 8 -86 16 -100 19 -14 3 -41 9 -60 13 -41 8 -41 8 -60 15 -8 3 -49 15 -90
27 -140 42 -295 103 -440 175 -578 287 -1051 779 -1313 1366 -67 151 -145 376
-163 470 -3 14 -7 33 -10 42 -3 10 -7 30 -10 45 -3 16 -7 35 -9 43 -3 8 -7 33
-10 55 -3 22 -10 63 -15 90 -24 130 -34 511 -17 680 53 545 260 1052 605 1485
100 124 311 336 437 436 215 171 466 318 705 412 41 16 84 33 95 37 11 4 25 9
30 10 6 2 46 14 90 28 73 24 146 44 185 52 8 2 35 8 60 14 25 5 61 12 80 16
19 3 46 8 60 10 33 7 85 13 173 21 40 3 74 8 76 10 5 5 454 -4 481 -9z"/>
<path d="M2474 4861 c-2 -2 -4 -616 -4 -1363 l0 -1358 350 0 c273 0 350 3 351
13 0 6 1 618 2 1360 2 1191 0 1347 -13 1348 -55 3 -682 3 -686 0z"/>
<path d="M3819 4850 c-1 -20 -1 -2670 0 -2692 1 -17 25 -18 350 -18 l350 0 0
1360 c0 1053 -3 1360 -12 1361 -7 0 -164 2 -349 2 -294 2 -338 0 -339 -13z"/>
</g>
</svg>
