<?xml version="1.0" encoding="UTF-8" standalone="no"?>
<svg
   xmlns:dc="http://purl.org/dc/elements/1.1/"
   xmlns:cc="http://creativecommons.org/ns#"
   xmlns:rdf="http://www.w3.org/1999/02/22-rdf-syntax-ns#"
   xmlns:svg="http://www.w3.org/2000/svg"
   xmlns="http://www.w3.org/2000/svg"
   xmlns:sodipodi="http://sodipodi.sourceforge.net/DTD/sodipodi-0.dtd"
   xmlns:inkscape="http://www.inkscape.org/namespaces/inkscape"
   inkscape:version="1.0 (4035a4f, 2020-05-01)"
   height="629"
   width="629"
   sodipodi:docname="slow.svg"
   id="svg14"
   version="1.1"
   viewBox="0 0 629 629"
   text-rendering="geometricPrecision"
   shape-rendering="geometricPrecision"
   image-rendering="optimizeQuality"
   clip-rule="evenodd"
   fill-rule="evenodd">
  <metadata
     id="metadata20">
    <rdf:RDF>
      <cc:Work
         rdf:about="">
        <dc:format>image/svg+xml</dc:format>
        <dc:type
           rdf:resource="http://purl.org/dc/dcmitype/StillImage" />
      </cc:Work>
    </rdf:RDF>
  </metadata>
  <defs
     id="defs18" />
  <sodipodi:namedview
     inkscape:current-layer="svg14"
     inkscape:window-maximized="0"
     inkscape:window-y="23"
     inkscape:window-x="0"
     inkscape:cy="393.125"
     inkscape:cx="314.5"
     inkscape:zoom="0.93481717"
     showgrid="false"
     id="namedview16"
     inkscape:window-height="857"
     inkscape:window-width="1407"
     inkscape:pageshadow="2"
     inkscape:pageopacity="0"
     guidetolerance="10"
     gridtolerance="10"
     objecttolerance="10"
     borderopacity="1"
     bordercolor="#666666"
     pagecolor="#ffffff" />
  <path
     id="path10"
     class="fil0"
     d="m 222,192 h 63.06 V 436.712 H 222 Z m 121,0 h 63.06 V 436.712 H 343 Z" />
  <path
     id="path12"
     class="fil0"
     d="M 314,0 C 488,0 629,141 629,314 629,488 488,629 314,629 141,629 0,488 0,314 0,141 141,0 314,0 Z m 0,62 C 454,62 567,175 567,314 567,454 454,567 314,567 175,567 62,454 62,314 62,175 175,62 314,62 Z" />
</svg>
