<?xml version="1.0" encoding="UTF-8" standalone="no"?>
<svg
   xmlns:dc="http://purl.org/dc/elements/1.1/"
   xmlns:cc="http://creativecommons.org/ns#"
   xmlns:rdf="http://www.w3.org/1999/02/22-rdf-syntax-ns#"
   xmlns:svg="http://www.w3.org/2000/svg"
   xmlns="http://www.w3.org/2000/svg"
   xmlns:sodipodi="http://sodipodi.sourceforge.net/DTD/sodipodi-0.dtd"
   xmlns:inkscape="http://www.inkscape.org/namespaces/inkscape"
   width="1200"
   height="630"
   viewBox="0 0 317.5008 166.68468"
   version="1.1"
   id="svg30"
   sodipodi:docname="social.svg"
   inkscape:export-filename="/Users/jp/src/personal/slow.fyi/public/social.png"
   inkscape:export-xdpi="96"
   inkscape:export-ydpi="96"
   inkscape:version="1.0 (4035a4f, 2020-05-01)">
  <metadata
     id="metadata36">
    <rdf:RDF>
      <cc:Work
         rdf:about="">
        <dc:format>image/svg+xml</dc:format>
        <dc:type
           rdf:resource="http://purl.org/dc/dcmitype/StillImage" />
        <dc:title />
      </cc:Work>
    </rdf:RDF>
  </metadata>
  <defs
     id="defs34" />
  <sodipodi:namedview
     inkscape:document-rotation="0"
     pagecolor="#ffffff"
     bordercolor="#666666"
     borderopacity="1"
     objecttolerance="10"
     gridtolerance="10"
     guidetolerance="10"
     inkscape:pageopacity="0"
     inkscape:pageshadow="2"
     inkscape:window-width="1582"
     inkscape:window-height="1028"
     id="namedview32"
     showgrid="false"
     inkscape:zoom="0.50895314"
     inkscape:cx="299.10967"
     inkscape:cy="322.14277"
     inkscape:window-x="206"
     inkscape:window-y="23"
     inkscape:window-maximized="0"
     inkscape:current-layer="svg30" />
  <rect
     y="-0.52147925"
     x="0"
     height="166.68793"
     width="316.47421"
     id="rect66"
     style="fill:#ffffff;stroke:#000000;stroke-width:0.529001;stroke-linejoin:round;paint-order:stroke fill markers;fill-opacity:1" />
  <g
     style="fill:#000000;fill-opacity:1"
     transform="translate(0,5.2916651)"
     id="g64">
    <g
       style="fill:#000000;fill-opacity:1"
       transform="matrix(1.6690369,0,0,1.6690369,49.099685,47.99984)"
       id="g28">
      <path
         style="fill:#000000;fill-opacity:1"
         id="path10"
         d="m 17.06,2.328 q 0.656,0.127 0.974,0.445 0.339,0.317 0.339,0.74 0,0.7 -0.403,1.017 Q 17.59,4.847 16.743,4.784 14.838,4.635 13.758,4.594 12.7,4.53 10.964,4.508 10.181,8.403 9.525,12.34 9.292,13.78 9.038,15.684 8.784,17.568 8.699,18.732 8.657,19.346 8.191,19.685 7.726,20.002 7.07,20.002 q -0.699,0 -1.08,-0.338 -0.38,-0.339 -0.38,-0.89 0,-0.507 0.147,-1.671 0.17,-1.186 0.381,-2.477 0.233,-1.291 0.36,-2.244 Q 6.731,10.774 7.028,9.186 7.324,7.599 7.62,6.181 7.683,5.863 7.768,5.461 7.853,5.038 7.958,4.53 5.884,4.593 4.699,4.868 3.514,5.143 3.006,5.651 2.519,6.138 2.519,6.921 q 0,0.72 0.423,1.376 0.085,0.148 0.085,0.318 0,0.402 -0.487,0.762 Q 2.074,9.715 1.566,9.715 1.206,9.715 0.974,9.504 0.55,9.144 0.275,8.488 0,7.81 0,6.964 0,5.164 1.164,4.085 2.349,2.985 4.741,2.476 7.154,1.968 10.922,1.968 q 2.328,0 3.704,0.085 1.397,0.085 2.434,0.275 z m -1.448,17.674 q -1.313,0 -2.096,-0.952 -0.783,-0.953 -0.783,-2.498 0,-1.693 0.783,-3.196 0.783,-1.524 2.075,-2.434 1.312,-0.931 2.772,-0.931 0.466,0 0.614,0.19 0.17,0.17 0.275,0.635 0.445,-0.085 0.932,-0.085 1.037,0 1.037,0.741 0,0.445 -0.318,2.117 -0.486,2.434 -0.486,3.387 0,0.317 0.148,0.508 0.169,0.19 0.423,0.19 0.402,0 0.974,-0.508 0.571,-0.53 1.545,-1.693 0.254,-0.297 0.571,-0.297 0.275,0 0.424,0.254 0.169,0.254 0.169,0.699 0,0.847 -0.402,1.312 -0.868,1.08 -1.842,1.82 -0.973,0.741 -1.883,0.741 -0.699,0 -1.292,-0.465 -0.571,-0.487 -0.867,-1.313 -1.101,1.778 -2.773,1.778 z m 0.762,-2.137 q 0.465,0 0.889,-0.55 0.423,-0.551 0.614,-1.461 l 0.783,-3.895 q -0.89,0.021 -1.651,0.677 -0.741,0.635 -1.186,1.694 -0.444,1.058 -0.444,2.243 0,0.657 0.254,0.974 0.275,0.318 0.74,0.318 z" />
      <path
         style="fill:#000000;fill-opacity:1"
         id="path12"
         d="m 35.206,15.176 q 0.275,0 0.423,0.254 0.17,0.254 0.17,0.699 0,0.847 -0.403,1.312 -0.952,1.164 -1.926,1.863 -0.974,0.698 -2.307,0.698 -1.63,0 -2.625,-0.93 -0.995,-0.932 -0.995,-2.477 0,-0.826 0.847,-1.186 0.931,-0.402 1.334,-0.846 0.402,-0.466 0.402,-1.122 0,-0.381 -0.17,-0.572 -0.148,-0.19 -0.38,-0.19 -0.572,0 -1.27,0.825 -0.678,0.826 -1.27,2.138 -0.593,1.291 -0.932,2.667 -0.233,0.995 -0.55,1.355 -0.297,0.338 -0.953,0.338 -0.656,0 -0.973,-0.465 -0.297,-0.487 -0.403,-1.482 -0.105,-0.995 -0.105,-2.92 0,-3.26 0.656,-6.795 Q 24.453,4.805 25.744,2.413 27.057,0 28.877,0 q 0.974,0 1.566,0.847 0.614,0.825 0.614,2.159 0,2.137 -1.249,4.445 -1.249,2.286 -4.064,5.355 -0.063,1.1 -0.063,2.265 1.016,-2.646 2.328,-3.832 1.312,-1.206 2.455,-1.206 1.059,0 1.694,0.72 0.656,0.72 0.656,1.778 0,1.164 -0.593,2.137 -0.592,0.974 -2.032,1.736 0.085,0.572 0.508,0.931 0.445,0.34 1.059,0.34 0.656,0 1.27,-0.509 0.613,-0.508 1.608,-1.693 0.254,-0.297 0.572,-0.297 z M 28.432,2.096 q -0.38,0 -0.846,1.1 -0.466,1.08 -0.91,2.942 -0.424,1.842 -0.699,4.022 1.312,-1.545 2.159,-3.366 0.868,-1.82 0.868,-3.302 0,-0.677 -0.148,-1.037 -0.148,-0.36 -0.424,-0.36 z" />
      <path
         style="fill:#000000;fill-opacity:1"
         id="path14"
         d="m 41.67,15.811 q 0.275,0 0.423,0.254 0.17,0.254 0.17,0.699 0,0.762 -0.36,1.312 -0.593,0.91 -1.567,1.418 -0.952,0.508 -2.286,0.508 -2.032,0 -3.154,-1.206 -1.121,-1.228 -1.121,-3.302 0,-1.46 0.613,-2.71 0.614,-1.27 1.694,-2.01 1.1,-0.741 2.476,-0.741 1.228,0 1.969,0.74 0.74,0.72 0.74,1.97 0,1.46 -1.058,2.518 -1.037,1.037 -3.556,1.651 0.508,0.974 1.715,0.974 0.868,0 1.418,-0.402 0.571,-0.403 1.312,-1.355 0.254,-0.318 0.572,-0.318 z m -3.472,-3.704 q -0.783,0 -1.333,0.91 -0.53,0.91 -0.53,2.202 v 0.042 q 1.25,-0.296 1.97,-0.889 0.719,-0.593 0.719,-1.376 0,-0.402 -0.233,-0.635 -0.212,-0.254 -0.593,-0.254 z m 21.035,3.112 q 0.276,0 0.424,0.275 0.17,0.254 0.17,0.656 0,0.487 -0.15,0.762 -0.147,0.275 -0.465,0.487 l -4.064,2.73 q -0.804,4.382 -2.116,6.88 -1.292,2.518 -3.302,2.518 -1.08,0 -1.757,-0.677 -0.678,-0.656 -0.678,-1.736 0,-0.994 0.445,-2.032 0.466,-1.037 1.693,-2.391 1.25,-1.334 3.514,-3.07 l 0.063,-0.486 q 0.149,-0.784 0.34,-2.244 -0.424,1.524 -1.186,2.328 -0.762,0.783 -1.609,0.783 -0.952,0 -1.566,-0.867 -0.593,-0.89 -0.593,-2.202 0,-1.587 0.212,-2.9 0.211,-1.333 0.698,-2.815 0.212,-0.635 0.593,-0.91 0.38,-0.275 1.206,-0.275 0.466,0 0.635,0.148 0.19,0.148 0.19,0.445 0,0.169 -0.232,1.143 -0.212,0.783 -0.339,1.418 -0.169,0.868 -0.296,1.672 -0.127,0.783 -0.127,1.291 0,0.804 0.445,0.804 0.317,0 0.783,-0.635 0.487,-0.635 1.016,-1.926 0.55,-1.29 1.058,-3.175 0.17,-0.635 0.508,-0.91 0.36,-0.275 1.058,-0.275 0.487,0 0.678,0.127 0.19,0.127 0.19,0.423 0,0.53 -0.55,3.641 l -0.55,3.408 q 1.63,-1.228 3.175,-2.244 0.275,-0.17 0.486,-0.17 z m -9.27,12.255 q 0.529,0 1.185,-1.227 0.656,-1.228 1.312,-4.086 -1.63,1.376 -2.37,2.498 -0.72,1.143 -0.72,1.99 0,0.36 0.127,0.592 0.148,0.233 0.465,0.233 z" />
      <path
         style="fill:#000000;fill-opacity:1"
         id="path16"
         d="m 69.32,13.398 q 0.275,0 0.423,0.276 0.148,0.275 0.148,0.698 0,1.016 -0.614,1.207 -1.27,0.444 -2.794,0.508 -0.402,1.778 -1.587,2.857 -1.186,1.058 -2.688,1.058 -1.27,0 -2.18,-0.613 -0.89,-0.614 -1.355,-1.63 -0.466,-1.016 -0.466,-2.202 0,-1.608 0.614,-2.857 0.614,-1.27 1.693,-1.969 1.08,-0.72 2.392,-0.72 1.609,0 2.582,1.123 0.995,1.1 1.165,2.73 0.994,-0.063 2.37,-0.423 0.17,-0.043 0.297,-0.043 z m -6.943,4.36 q 0.677,0 1.164,-0.55 0.508,-0.55 0.677,-1.587 -0.656,-0.445 -1.016,-1.164 -0.338,-0.72 -0.338,-1.524 0,-0.339 0.063,-0.678 h -0.106 q -0.846,0 -1.418,0.826 -0.55,0.804 -0.55,2.286 0,1.164 0.444,1.778 0.466,0.614 1.08,0.614 z" />
      <path
         style="fill:#000000;fill-opacity:1"
         id="path18"
         d="m 70.233,20.002 q -0.952,0 -1.566,-0.867 -0.593,-0.89 -0.593,-2.202 0,-1.587 0.212,-2.9 0.212,-1.333 0.699,-2.815 0.211,-0.635 0.592,-0.91 0.381,-0.275 1.207,-0.275 0.465,0 0.635,0.148 0.19,0.148 0.19,0.445 0,0.169 -0.233,1.143 -0.211,0.783 -0.338,1.418 -0.424,2.222 -0.424,2.963 0,0.445 0.106,0.635 0.106,0.17 0.339,0.17 0.317,0 0.783,-0.636 0.487,-0.635 1.016,-1.926 0.55,-1.29 1.058,-3.175 0.17,-0.635 0.508,-0.91 0.36,-0.275 1.059,-0.275 0.487,0 0.677,0.127 0.19,0.106 0.19,0.423 0,0.53 -0.529,2.9 -0.592,2.71 -0.592,3.344 0,0.403 0.17,0.635 0.168,0.212 0.444,0.212 0.423,0 0.994,-0.508 0.593,-0.53 1.567,-1.693 0.254,-0.297 0.571,-0.297 0.275,0 0.424,0.254 0.169,0.254 0.169,0.699 0,0.847 -0.402,1.312 -0.91,1.122 -1.969,1.842 -1.037,0.72 -2.37,0.72 -1.016,0 -1.503,-0.784 -0.466,-0.783 -0.466,-2.201 -0.36,1.44 -1.08,2.222 -0.72,0.762 -1.545,0.762 z" />
      <path
         style="fill:#000000;fill-opacity:1"
         id="path20"
         d="m 86.424,12.933 q 0.465,0 0.783,0.338 0.338,0.318 0.338,0.805 0,0.275 -0.127,0.592 -0.338,0.784 -0.952,1.313 -0.614,0.529 -1.355,0.529 -0.592,0 -1.016,-0.423 -0.402,-0.424 -0.402,-1.143 0,-0.403 0.042,-0.868 0.043,-0.339 0.043,-0.466 0,-0.17 -0.085,-0.254 -0.063,-0.085 -0.17,-0.085 -0.296,0 -0.804,0.72 -0.508,0.699 -1.016,1.863 -0.508,1.164 -0.825,2.455 -0.233,1.016 -0.53,1.355 -0.296,0.338 -0.973,0.338 -0.804,0 -1.143,-0.846 -0.317,-0.847 -0.317,-2.71 0,-2.751 0.783,-5.228 0.19,-0.614 0.614,-0.889 0.444,-0.296 1.227,-0.296 0.424,0 0.593,0.106 0.17,0.106 0.17,0.402 0,0.339 -0.318,1.524 -0.212,0.847 -0.339,1.482 -0.127,0.635 -0.212,1.566 0.699,-1.82 1.567,-2.963 0.868,-1.143 1.693,-1.63 0.826,-0.487 1.503,-0.487 0.614,0 0.931,0.36 0.339,0.338 0.339,1.016 0,0.402 -0.233,1.524 z m 16.97,2.243 q 0.275,0 0.424,0.254 0.169,0.254 0.169,0.699 0,0.847 -0.402,1.312 -0.91,1.122 -1.99,1.842 -1.08,0.72 -2.476,0.72 -4.318,0 -4.318,-6.075 0,-0.932 0.063,-1.884 h -0.825 q -0.635,0 -0.868,-0.233 -0.212,-0.233 -0.212,-0.74 0,-1.186 0.953,-1.186 h 1.206 q 0.36,-2.329 1.1,-4.255 0.742,-1.926 1.779,-3.069 1.058,-1.143 2.265,-1.143 0.889,0 1.397,0.783 0.508,0.783 0.508,1.969 0,3.28 -2.752,5.715 h 2.37 q 0.34,0 0.487,0.148 0.149,0.148 0.149,0.55 0,1.46 -2.392,1.46 h -2.583 q -0.042,1.06 -0.042,1.652 0,2.201 0.508,3.09 0.53,0.89 1.651,0.89 0.91,0 1.609,-0.551 0.698,-0.55 1.65,-1.651 0.255,-0.297 0.572,-0.297 z M 99.69,3.45 q -0.317,0 -0.72,0.804 -0.38,0.784 -0.74,2.202 -0.34,1.397 -0.572,3.111 1.249,-1.08 1.863,-2.413 0.635,-1.354 0.635,-2.455 0,-1.249 -0.466,-1.249 z" />
      <path
         style="fill:#000000;fill-opacity:1"
         id="path22"
         d="m 105.036,8.636 q -0.889,0 -1.333,-0.402 -0.445,-0.424 -0.445,-1.164 0,-0.741 0.572,-1.228 0.592,-0.508 1.46,-0.508 0.783,0 1.27,0.381 0.487,0.381 0.487,1.08 0,0.846 -0.55,1.354 -0.55,0.487 -1.46,0.487 z m -0.17,11.366 q -1.375,0 -2.01,-0.973 -0.614,-0.974 -0.614,-2.583 0,-0.952 0.233,-2.434 0.254,-1.503 0.635,-2.794 0.19,-0.677 0.508,-0.931 0.318,-0.254 1.016,-0.254 1.08,0 1.08,0.72 0,0.529 -0.403,2.455 -0.508,2.328 -0.508,3.154 0,0.635 0.17,0.973 0.17,0.34 0.571,0.34 0.381,0 0.953,-0.53 0.571,-0.53 1.524,-1.672 0.254,-0.297 0.571,-0.297 0.275,0 0.424,0.254 0.169,0.254 0.169,0.699 0,0.847 -0.402,1.312 -2.096,2.561 -3.916,2.561 z" />
      <path
         style="fill:#000000;fill-opacity:1"
         id="path24"
         d="m 108.975,20.002 q -0.804,0 -1.143,-0.846 -0.317,-0.847 -0.317,-2.71 0,-2.751 0.783,-5.228 0.19,-0.614 0.614,-0.889 0.444,-0.296 1.227,-0.296 0.424,0 0.593,0.106 0.17,0.106 0.17,0.402 0,0.339 -0.318,1.524 -0.212,0.847 -0.339,1.482 -0.127,0.613 -0.211,1.545 0.571,-1.651 1.354,-2.794 0.805,-1.143 1.63,-1.694 0.847,-0.571 1.588,-0.571 0.74,0 1.037,0.339 0.317,0.338 0.317,1.037 0,0.677 -0.402,2.455 -0.17,0.762 -0.233,1.143 1.059,-2.603 2.35,-3.789 1.29,-1.185 2.413,-1.185 1.376,0 1.376,1.376 0,0.825 -0.466,2.984 -0.402,1.842 -0.402,2.434 0,0.847 0.614,0.847 0.423,0 0.994,-0.508 0.593,-0.53 1.567,-1.693 0.254,-0.297 0.571,-0.297 0.275,0 0.424,0.254 0.169,0.254 0.169,0.699 0,0.847 -0.402,1.312 -0.91,1.122 -1.969,1.842 -1.037,0.72 -2.37,0.72 -1.08,0 -1.63,-0.614 -0.55,-0.635 -0.55,-1.82 0,-0.593 0.296,-2.117 0.275,-1.334 0.275,-1.842 0,-0.339 -0.233,-0.339 -0.275,0 -0.783,0.72 -0.508,0.699 -1.016,1.863 -0.508,1.164 -0.826,2.455 -0.232,1.016 -0.55,1.355 -0.296,0.338 -0.974,0.338 -0.698,0 -1.058,-0.656 -0.339,-0.677 -0.339,-1.63 0,-0.804 0.212,-2.328 0.17,-1.355 0.17,-1.778 0,-0.339 -0.233,-0.339 -0.318,0 -0.805,0.762 -0.487,0.762 -0.952,1.948 -0.445,1.185 -0.72,2.328 -0.233,0.995 -0.55,1.355 -0.297,0.338 -0.953,0.338 z" />
      <path
         style="fill:#000000;fill-opacity:1"
         id="path26"
         d="m 130.801,15.811 q 0.275,0 0.423,0.254 0.17,0.254 0.17,0.699 0,0.762 -0.36,1.312 -0.593,0.91 -1.567,1.418 -0.952,0.508 -2.286,0.508 -2.032,0 -3.153,-1.206 -1.122,-1.228 -1.122,-3.302 0,-1.46 0.614,-2.71 0.614,-1.27 1.693,-2.01 1.1,-0.741 2.476,-0.741 1.228,0 1.969,0.74 0.74,0.72 0.74,1.97 0,1.46 -1.058,2.518 -1.037,1.037 -3.556,1.651 0.508,0.974 1.715,0.974 0.868,0 1.418,-0.402 0.572,-0.403 1.312,-1.355 0.254,-0.318 0.572,-0.318 z m -3.471,-3.704 q -0.784,0 -1.334,0.91 -0.529,0.91 -0.529,2.202 v 0.042 q 1.249,-0.296 1.968,-0.889 0.72,-0.593 0.72,-1.376 0,-0.402 -0.233,-0.635 -0.211,-0.254 -0.592,-0.254 z" />
    </g>
    <text
       id="text40"
       y="105.55901"
       x="140.5085"
       style="font-style:normal;font-weight:normal;font-size:10.58339999999999925px;line-height:1.25;font-family:sans-serif;fill:#000000;fill-opacity:1;stroke:none;stroke-width:0.264584"
       xml:space="preserve"><tspan
         style="font-style:normal;font-variant:normal;font-weight:normal;font-stretch:normal;font-family:'Open Sans';-inkscape-font-specification:'Open Sans';stroke-width:0.264584;fill:#000000;fill-opacity:1"
         y="105.55901"
         x="140.5085"
         id="tspan38"
         sodipodi:role="line">slow.fyi</tspan></text>
  </g>
</svg>
